<?xml version="1.0" encoding="utf-8"?>
<!-- Generator: Adobe Illustrator 27.1.1, SVG Export Plug-In . SVG Version: 6.00 Build 0)  -->
<svg version="1.1" id="Capa_1" xmlns="http://www.w3.org/2000/svg" xmlns:xlink="http://www.w3.org/1999/xlink" x="0px" y="0px"
	 viewBox="0 0 830.5 148.2" style="enable-background:new 0 0 830.5 148.2;" xml:space="preserve">
<style type="text/css">
	.st0{fill:#FBBC1D;}
</style>
<g>
	<g>
		<path class="st0" d="M28.2,132.2c-9.5,0-16.5-2.7-21-8c-4.5-5.3-6.7-13.2-6.7-23.6V17.1h22.2v82.6c0,1.9,0.1,3.7,0.3,5.5
			c0.2,1.8,0.7,3.2,1.5,4.3c0.8,1.1,2,1.7,3.8,1.7c1.8,0,3-0.6,3.8-1.7c0.8-1.1,1.3-2.5,1.5-4.3c0.2-1.8,0.3-3.6,0.3-5.5V17.1h22.2
			v83.5c0,10.4-2.2,18.2-6.7,23.6C44.7,129.5,37.7,132.2,28.2,132.2z"/>
		<path class="st0" d="M63.8,131.1V17.1h23.5l10.5,54.6V17.1h22v114.1H97.5l-11.4-57v57H63.8z"/>
		<path class="st0" d="M128.1,131.1V17.1h22v114.1H128.1z"/>
		<path class="st0" d="M168.9,131.1L154.9,17h21.7l8.4,77.6l7.5-77.6h21.7L200,131.1H168.9z"/>
		<path class="st0" d="M219.9,131.1V17.1h45.6v22h-22.4v22.2h21.5v21.5h-21.5v26.1H267v22.2H219.9z"/>
		<path class="st0" d="M273.7,131.1V17.1h35c5.8,0,10.2,1.3,13.2,4c3,2.7,5,6.4,6,11.1c1,4.8,1.5,10.4,1.5,16.8
			c0,6.2-0.8,11.2-2.4,14.9c-1.6,3.7-4.5,6.3-8.9,7.7c3.6,0.7,6.1,2.5,7.5,5.3c1.4,2.8,2.2,6.5,2.2,11v43.2h-22.5V86.5
			c0-3.3-0.7-5.4-2-6.2c-1.4-0.8-3.6-1.2-6.6-1.2v52H273.7z M296.9,59.3h5.5c3.2,0,4.7-3.4,4.7-10.3c0-4.4-0.3-7.4-1-8.7
			c-0.7-1.4-2-2.1-3.9-2.1h-5.3V59.3z"/>
		<path class="st0" d="M363.3,132.2c-10.4,0-17.9-2.6-22.5-7.8c-4.6-5.2-6.9-13.4-6.9-24.8V88.5h22.6v14.3c0,2.6,0.4,4.7,1.2,6.2
			c0.8,1.5,2.2,2.2,4.2,2.2c2.1,0,3.5-0.6,4.3-1.8c0.8-1.2,1.2-3.2,1.2-6c0-3.5-0.3-6.4-1-8.8c-0.7-2.4-1.9-4.6-3.6-6.7
			c-1.7-2.1-4.1-4.6-7.1-7.5l-10.2-9.7c-7.6-7.2-11.5-15.5-11.5-24.8c0-9.7,2.3-17.1,6.8-22.2c4.5-5.1,11-7.6,19.6-7.6
			c10.5,0,17.9,2.8,22.3,8.4c4.4,5.6,6.6,14,6.6,25.4h-23.2V42c0-1.6-0.4-2.8-1.3-3.6c-0.9-0.9-2.1-1.3-3.6-1.3
			c-1.8,0-3.1,0.5-4,1.5c-0.8,1-1.3,2.3-1.3,3.9s0.4,3.3,1.3,5.2c0.9,1.9,2.6,4,5.1,6.4l13.2,12.6c2.6,2.5,5.1,5.2,7.3,7.9
			c2.2,2.8,4,6,5.3,9.7c1.3,3.7,2,8.2,2,13.5c0,10.7-2,19.1-5.9,25.2C380,129.1,373.1,132.2,363.3,132.2z"/>
		<path class="st0" d="M393.5,131.1l11-114.1h38.7L454,131.1h-21.6l-1.6-18.4h-13.7l-1.4,18.4H393.5z M418.7,94.5h10.4l-5-58h-1
			L418.7,94.5z"/>
		<path class="st0" d="M460.2,131.1V17.1h22.8v94.6h23.5v19.4H460.2z"/>
		<path class="st0" d="M552.3,131.1V39h-13.5V17.1h49.9V39h-13.5v92.2H552.3z"/>
		<path class="st0" d="M621.4,132.2c-9.1,0-16.1-2.8-20.9-8.3c-4.8-5.5-7.2-13.5-7.2-23.9V45.9c0-9.8,2.4-17.2,7.2-22.2
			c4.8-5.1,11.8-7.6,21-7.6c9.2,0,16.2,2.5,21,7.6c4.8,5.1,7.2,12.5,7.2,22.2V100c0,10.4-2.4,18.4-7.2,23.9
			C637.5,129.4,630.5,132.2,621.4,132.2z M621.6,111.2c3.5,0,5.2-3.3,5.2-10V45.5c0-5.6-1.7-8.4-5.1-8.4c-3.8,0-5.7,2.9-5.7,8.6
			v55.6c0,3.5,0.4,6.1,1.3,7.6C618.2,110.4,619.6,111.2,621.6,111.2z"/>
		<path class="st0" d="M685.2,132.2c-9.1,0-16.1-2.8-20.9-8.3c-4.8-5.5-7.2-13.5-7.2-23.9V45.9c0-9.8,2.4-17.2,7.2-22.2
			c4.8-5.1,11.8-7.6,21-7.6s16.2,2.5,21,7.6c4.8,5.1,7.2,12.5,7.2,22.2V100c0,10.4-2.4,18.4-7.2,23.9
			C701.2,129.4,694.3,132.2,685.2,132.2z M685.4,111.2c3.5,0,5.2-3.3,5.2-10V45.5c0-5.6-1.7-8.4-5.1-8.4c-3.8,0-5.7,2.9-5.7,8.6
			v55.6c0,3.5,0.4,6.1,1.3,7.6C681.9,110.4,683.4,111.2,685.4,111.2z"/>
		<path class="st0" d="M721.7,131.1V17.1h22.8v94.6H768v19.4H721.7z"/>
		<path class="st0" d="M800.7,132.2c-10.4,0-17.9-2.6-22.5-7.8c-4.6-5.2-6.9-13.4-6.9-24.8V88.5h22.6v14.3c0,2.6,0.4,4.7,1.2,6.2
			c0.8,1.5,2.2,2.2,4.2,2.2c2.1,0,3.5-0.6,4.3-1.8c0.8-1.2,1.2-3.2,1.2-6c0-3.5-0.3-6.4-1-8.8c-0.7-2.4-1.9-4.6-3.6-6.7
			c-1.7-2.1-4.1-4.6-7.1-7.5l-10.2-9.7c-7.6-7.2-11.5-15.5-11.5-24.8c0-9.7,2.3-17.1,6.8-22.2c4.5-5.1,11-7.6,19.6-7.6
			c10.5,0,17.9,2.8,22.3,8.4c4.4,5.6,6.6,14,6.6,25.4h-23.2V42c0-1.6-0.4-2.8-1.3-3.6c-0.9-0.9-2.1-1.3-3.6-1.3
			c-1.8,0-3.1,0.5-4,1.5c-0.8,1-1.3,2.3-1.3,3.9s0.4,3.3,1.3,5.2c0.9,1.9,2.6,4,5.1,6.4l13.2,12.6c2.6,2.5,5.1,5.2,7.3,7.9
			c2.2,2.8,4,6,5.3,9.7c1.3,3.7,2,8.2,2,13.5c0,10.7-2,19.1-5.9,25.2C817.4,129.1,810.5,132.2,800.7,132.2z"/>
	</g>
	<path class="st0" d="M0.1,11.2C0,7.4-0.1,3.8,0.1,0c276.9,0,553.6,0,830.4,0c0,3.8,0,7.4,0,11c-0.2,0.1-0.2,0.1-0.3,0.2
		c-0.1,0-0.1,0.1-0.2,0.1c-0.6,0-1.2,0.1-1.8,0.1c-275.6,0-551.1,0-826.7,0C1.2,11.4,0.9,11.3,0.1,11.2z"/>
	<path class="st0" d="M-0.1,148c-0.1-3.8-0.2-7.4,0-11.2c276.9,0,553.6,0,830.4,0c0,3.8,0,7.4,0,11c-0.2,0.1-0.2,0.1-0.3,0.2
		c-0.1,0-0.1,0.1-0.2,0.1c-0.6,0-1.2,0.1-1.8,0.1c-275.6,0-551.1,0-826.7,0C1,148.2,0.7,148.1-0.1,148z"/>
</g>
</svg>
