<?xml version="1.0" encoding="utf-8"?>
<!-- Generator: Adobe Illustrator 27.1.1, SVG Export Plug-In . SVG Version: 6.00 Build 0)  -->
<svg version="1.1" id="Capa_1" xmlns="http://www.w3.org/2000/svg" xmlns:xlink="http://www.w3.org/1999/xlink" x="0px" y="0px"
	 viewBox="0 0 1434.6 270.2" style="enable-background:new 0 0 1434.6 270.2;" xml:space="preserve">
<style type="text/css">
	.st0{fill:#FFFFFF;}
	.st1{fill:#FFFFFF;stroke:#FFFFFF;stroke-miterlimit:10;}
	.st2{fill:#FEBD16;}
</style>
<g>
	<path class="st0" d="M375.3,97.1c17.4,3.1,34.8,5.2,52.5,5.2c36.8-0.2,68.8-12.3,95.8-37.5c11.8-11,23.6-22.1,35.6-33
		c10-9,22.2-13,35.4-14.9c12.6-1.8,25-0.7,37.5,1.4c4.4,0.8,7-0.6,9.1-4.6c1.4-2.8,2.6-5.7,3.8-8.5c2.8-6.1,4.5-6.4,9-1.5
		c4.8,5.2,9.3,10.6,14.7,15.2C677,26,686,32.4,694.6,39.1c3.5,2.8,6.8,5.9,10.2,8.9c4.1,3.8,6.5,8.5,6.5,14c0.1,4.3,2.1,7.2,5,9.8
		c7,6.4,13.9,12.9,20.8,19.3c0.7,0.6,1.3,1.3,2,1.9c5.6,5.8,4.8,11.3-2.5,14.9c-4.4,2.2-7.8,5.1-10.6,9c-7.5,10.3-19,10.8-26-0.1
		c-5.9-9.1-13.1-12-23.3-10.7c-6.8,0.9-13.2-1.3-18.9-5.2c-4.3-2.9-8.7-5.7-13.4-7.8c-0.8-0.4-1.8-0.5-2.8-0.5
		c-2.8-0.1-5.1,2.4-4.7,5.2c0.1,0.8,0.3,1.7,0.6,2.4c3.9,8.8,5.8,17.6,4.9,27.5c-1.5,17.4,6.2,31.3,19.6,42.1
		c10.3,8.3,21.9,14.5,34,19.7c26.8,11.4,53.9,22.4,79.1,37.3c13.2,7.8,24.9,17.5,35,29.1c1.5,1.7,2.8,3.7,3.8,5.8
		c1.9,3.7,0.3,6.2-4,6.5c-1.2,0.1-2.3,0-3.5,0c-12.7,0-25.4,0-38.1,0c-4.5,0-6.4-1.1-7.8-5.4c-3.8-11.8-11.8-19-23.5-22.3
		c-19.9-5.6-39.9-11.1-59.8-16.7c-12.8-3.6-26-6.4-38.4-11.2c-18.3-7.2-30.6-13.7-43.5-28.9c-7.6-8.9-11.6-23.8-9.5-34.5
		c0.3-1.4,0.9-2.7,1-4c0-0.1,0-0.1,0-0.2c0-2.1-2.4-3.5-4.1-2.3c-0.1,0.1-0.2,0.1-0.3,0.2c-1.3,1.2-2.4,2.9-3.1,4.5
		c-2.8,6.8-3.7,13.9-1.2,20.9c2.2,6.4,4.9,12.6,7.6,18.9c2.2,5.2,1.6,8.1-3.9,9.4c-6.2,1.5-12.7,2.7-19,2.7
		c-11.3-0.1-22.6-0.9-33.8-1.9c-14.6-1.4-28.9-4.1-42.9-8.7c-20.5-6.6-37.1-18.9-50.8-35.1c-15.7-18.6-34.4-34.6-55.6-46.7
		c-4.2-2.4-8.3-5.2-12.5-7.8c-0.9-0.5-1.8-1-2.7-1.4c-1.2-0.6-0.7-2.5,0.7-2.3C368.7,96.1,372,96.5,375.3,97.1z M698.6,71.2
		c0.5-0.3,2.2-0.8,3-1.9c0.5-0.8,0.1-2.8-0.5-3.8c-2.2-3.1-5.2-5.2-9.2-5.2c-1.2,0-3.2,0.7-3.5,1.5c-0.5,1.3-0.3,3.3,0.5,4.5
		C690.8,69.5,693.8,71,698.6,71.2z"/>
	<path class="st0" d="M274.4,80.1c23.4,0.3,45.2,6.1,65.8,17.2c20,10.8,37.9,24.2,53.2,41c6,6.6,11.2,13.8,16.5,20.9
		c0.4,0.6,0.8,1.3,1,2c0.7,2.2-0.8,4.5-3.2,4.6c-0.9,0.1-1.7,0-2.5-0.2c-22.1-5.9-43.4-13.8-63.7-24.3c-3.2-1.6-6.4-3.1-9.7-4.6
		c-3.4-1.5-7.4-0.3-9.4,2.8c-13.5,20.7-31,37.6-50.4,52.5c-11.1,8.5-24.2,12-38.1,12.6c-16.3,0.8-32.1-2.3-47.8-6
		c-9.1-2.1-17.5-1-25.4,4.2c-13.2,8.8-24.6,19.5-34.3,32c-5.4,7-5.4,11.9-0.6,19.3c1.4,2.2,3,4.4,4.4,6.6c1.3,2.1,3,5.5-0.1,7.7
		c-0.8,0.2-3.1,0-3.9,0c-7.1,0.3-14.3-0.1-21.4,0c-4.3,0.1-5.8-3.8-5.4-7.9c0.9-8.1,1.3-16.4,3.2-24.2c1.7-7.2,4.4-14.3,7.8-20.9
		c8.7-17.2,17.9-34.1,27.2-51c4.5-8.1,11.7-13.7,19.6-18.2c11.4-6.6,23.1-12.4,34.6-18.9c8.3-4.7,16.6-9.6,24.3-15.2
		c4.6-3.3,8.6-7.8,12-12.4c11.1-14.8,26.1-20.1,43.8-19.7C272.8,80.1,273.6,80.1,274.4,80.1z"/>
	<path class="st0" d="M500.5,65c-1.5,1.2-3.4,2-4.1,2.3c-10.9,4-21.6,8.5-32.8,11.6c-14.8,4.1-30.1,5.7-45.5,5
		c-13.6-0.6-26.1-0.3-39.7-1.5c-15.9-1.4-32.9-4-48.8-6c-9.4-1.1-15.7-2.8-25-3.8c-8.7-0.9-19-3.6-27.8-4.1
		c-12-0.7-26.5-0.1-38.3,2.8c-28.1,6.9-53.8,19.4-79.1,33.5c-4.5,2.5-8.8,5.5-13.1,8.4c-26.8,18.5-53.1,33.7-84.7,41.8
		c-8.1,2.1-19,2.4-27.4,0.6C17.8,152,6.1,141.7,2.6,126c-2.8-12.8-4-22.4-0.1-33.6c1.4-4,3.6-7.6,8.8-7.6c5.7,0,10.4,4.7,10.2,10.3
		c-0.2,6-0.8,12-0.7,17.9c0.2,7,1.9,13.7,6.8,19.1c6.9,7.6,15.9,8.7,25.2,7c25.4-4.7,47.9-16.3,69-30.7
		C141.6,95,161.2,81.3,183,71.3c17.7-8.1,35.5-16,54.8-19.5c16-3,32-4.4,48.1-1.8c19.4,3.1,38.7,6.9,58.1,10c15,2.4,30,4.9,45.1,5.9
		c19.7,1.2,39.5,1.6,59.2,1c15.1-0.4,30.2-2.8,45.4-4.2c2.2-0.2,4.1-0.4,6.3-0.4c1.2-0.1,1.3,0.5,1.4,0.7
		C501.7,63.4,502,63.8,500.5,65z"/>
	<path class="st0" d="M324,202.4c-0.5-1.5-0.4-6.8,0-8.3c0.8-2.8,0.9-3.4,2-5.9c2-4.3,4.4-8.4,7-12.3c3.8-6.1,6.5-12.3,5.8-19.8
		c-0.5-5.5,1.3-6.5,6.5-4.2c12.1,5.3,24.3,10.6,36.4,15.9c0.1,0,0.1,0.1,0.2,0.1c14,6,16.4,24.9,4,33.7c-0.1,0.1-0.3,0.2-0.4,0.3
		c-0.2,0.1-0.4,0.3-0.6,0.4c-15.1,10.6-14.2,26.6,1.8,35.6c0.1,0,0.2,0.1,0.2,0.1c6,3.4,12.3,6.4,18.4,9.6c4,2.1,6.8,5.4,8.7,9.6
		c1.7,3.8,0.8,10.7-3.2,11.3c-4.6,0.7-9.4-0.3-14.1,0c-6.4,0.5-12.9-0.5-19.3,0c-5.5,0.4-7.3-3.1-8.2-8.6c-1-5.7-3.8-10.3-7.8-14.3
		c-9-8.9-18.1-17.8-26.9-27c-3.2-3.4-6-7.3-8.5-11.3C324.9,205.4,324.7,204.8,324,202.4z"/>
	<path class="st0" d="M553.7,268.4c0.9,0,1.7,0,2.5,0.1c5.8,0.4,9.7-5.9,6.8-10.9c-2.4-4.1-5.6-7.7-8.3-11.6c-2.8-4-2-9.5,1.7-12.7
		c5.1-4.4,10.4-8.5,15.8-12.4c4.2-2.9,7.8-6.1,10-10.7c0.3-0.7,0.4-1.8,0.4-2.8c0-1.1-1-1.8-2-1.6c-0.7,0.2-1.5,0.4-2.2,0.5
		c-3,0.7-5.4,0.9-8.3,0.9c-11.1,0.8-22.7-0.3-33.9-0.6c-4.1-0.1-5.8,1.7-5.7,5.8c0.1,2.8,0.4,5.5,0.3,8.3
		c-0.3,6.6-3.8,11.8-7.6,16.7c-3.6,4.8-4.3,10.1-3.6,15.7c0.9,6.8,2.7,15.4,9.7,15.4c1.3,0,2.5-0.1,3.8-0.1H553.7L553.7,268.4z"/>
	<path class="st1" d="M168.5,94"/>
</g>
<g>
	<path class="st2" d="M874.7,131.2c-10.7,0-18.7-3-23.7-9c-5.1-6-7.6-14.9-7.6-26.6V1.2h25v93.4c0,2.1,0.1,4.2,0.4,6.2
		c0.2,2,0.8,3.6,1.7,4.9c0.9,1.3,2.3,1.9,4.2,1.9c2,0,3.4-0.6,4.3-1.9c0.9-1.2,1.4-2.9,1.6-4.9c0.2-2,0.3-4.1,0.3-6.2V1.2h25v94.4
		c0,11.7-2.5,20.6-7.6,26.6C893.4,128.2,885.4,131.2,874.7,131.2z"/>
	<path class="st2" d="M917.4,130.1V1.2H944l11.9,61.7V1.2h24.9v128.9h-25.2l-12.9-64.5v64.5H917.4z"/>
	<path class="st2" d="M992.5,130.1V1.2h24.9v128.9H992.5z"/>
	<path class="st2" d="M1041,130.1l-15.9-129h24.5l9.4,87.7l8.4-87.7h24.5l-15.9,129H1041z"/>
	<path class="st2" d="M1101,130.1V1.2h51.6v24.9h-25.3v25.1h24.3v24.2h-24.3V105h27v25.1H1101z"/>
	<path class="st2" d="M1164.3,130.1V1.2h39.6c6.6,0,11.6,1.5,14.9,4.5c3.4,3,5.6,7.2,6.8,12.6c1.1,5.4,1.7,11.7,1.7,19
		c0,7-0.9,12.6-2.7,16.8c-1.8,4.2-5.1,7.1-10.1,8.7c4.1,0.8,6.9,2.8,8.5,6c1.6,3.2,2.5,7.3,2.5,12.4v48.8h-25.4V79.6
		c0-3.8-0.8-6.1-2.3-7c-1.5-0.9-4-1.4-7.4-1.4v58.8H1164.3z M1190.5,48.9h6.2c3.6,0,5.3-3.9,5.3-11.6c0-5-0.4-8.3-1.2-9.9
		c-0.8-1.6-2.2-2.3-4.4-2.3h-6V48.9z"/>
	<path class="st2" d="M1267.9,131.2c-11.8,0-20.3-2.9-25.5-8.8c-5.2-5.9-7.8-15.2-7.8-28V81.9h25.5V98c0,3,0.5,5.3,1.4,7
		c0.9,1.7,2.5,2.5,4.7,2.5c2.3,0,4-0.7,4.9-2.1c0.9-1.4,1.4-3.6,1.4-6.7c0-4-0.4-7.3-1.2-9.9c-0.8-2.7-2.1-5.2-4.1-7.6
		c-1.9-2.4-4.6-5.2-8-8.5l-11.6-11c-8.6-8.2-13-17.5-13-28c0-11,2.6-19.4,7.7-25.1c5.1-5.8,12.5-8.6,22.2-8.6
		c11.8,0,20.2,3.1,25.2,9.4c5,6.3,7.4,15.9,7.4,28.7h-26.2v-8.9c0-1.8-0.5-3.1-1.5-4.1c-1-1-2.4-1.5-4.1-1.5c-2.1,0-3.6,0.6-4.5,1.7
		c-1,1.1-1.4,2.6-1.4,4.4c0,1.8,0.5,3.8,1.5,5.9c1,2.1,2.9,4.5,5.8,7.3l14.9,14.3c3,2.8,5.7,5.8,8.2,9c2.5,3.1,4.5,6.8,6,11
		c1.5,4.2,2.3,9.3,2.3,15.3c0,12.1-2.2,21.6-6.7,28.5C1286.7,127.8,1278.9,131.2,1267.9,131.2z"/>
	<path class="st2" d="M1304.4,130.1l12.5-128.9h43.7l12.2,128.9h-24.4l-1.8-20.8h-15.5l-1.6,20.8H1304.4z M1332.9,88.7h11.7
		l-5.6-65.6h-1.2L1332.9,88.7z"/>
	<path class="st2" d="M1382.3,130.1V1.2h25.8v106.9h26.5v22H1382.3z"/>
	<path class="st2" d="M856,269.1V164.9h-15.3v-24.8H897v24.8h-15.3v104.2H856z"/>
	<path class="st2" d="M936.5,270.2c-10.3,0-18.2-3.1-23.6-9.3c-5.4-6.2-8.2-15.2-8.2-27v-61.2c0-11,2.7-19.4,8.1-25.1
		c5.4-5.7,13.3-8.6,23.7-8.6s18.3,2.9,23.7,8.6s8.1,14.1,8.1,25.1v61.2c0,11.8-2.7,20.8-8.2,27C954.7,267.1,946.8,270.2,936.5,270.2
		z M936.7,246.5c3.9,0,5.9-3.8,5.9-11.4v-62.9c0-6.3-1.9-9.5-5.7-9.5c-4.3,0-6.4,3.2-6.4,9.7v62.8c0,4,0.5,6.9,1.5,8.6
		C932.8,245.7,934.5,246.5,936.7,246.5z"/>
	<path class="st2" d="M1010.9,270.2c-10.3,0-18.2-3.1-23.6-9.3c-5.4-6.2-8.2-15.2-8.2-27v-61.2c0-11,2.7-19.4,8.1-25.1
		c5.4-5.7,13.3-8.6,23.7-8.6s18.3,2.9,23.7,8.6s8.1,14.1,8.1,25.1v61.2c0,11.8-2.7,20.8-8.2,27
		C1029.1,267.1,1021.2,270.2,1010.9,270.2z M1011.2,246.5c3.9,0,5.9-3.8,5.9-11.4v-62.9c0-6.3-1.9-9.5-5.7-9.5
		c-4.3,0-6.4,3.2-6.4,9.7v62.8c0,4,0.5,6.9,1.5,8.6C1007.3,245.7,1008.9,246.5,1011.2,246.5z"/>
	<path class="st2" d="M1054.6,269.1V140.2h25.8v106.9h26.5v22H1054.6z"/>
	<path class="st2" d="M1146.4,270.2c-11.8,0-20.3-2.9-25.5-8.8c-5.2-5.9-7.8-15.2-7.8-28v-12.6h25.5V237c0,3,0.5,5.3,1.4,7
		c0.9,1.7,2.5,2.5,4.7,2.5c2.3,0,4-0.7,4.9-2.1c0.9-1.4,1.4-3.6,1.4-6.7c0-4-0.4-7.3-1.2-9.9c-0.8-2.7-2.1-5.2-4.1-7.6
		c-1.9-2.4-4.6-5.2-8-8.5l-11.6-11c-8.6-8.2-13-17.5-13-28c0-11,2.6-19.4,7.7-25.1c5.1-5.8,12.5-8.6,22.2-8.6
		c11.8,0,20.2,3.1,25.2,9.4c5,6.3,7.4,15.9,7.4,28.7h-26.2v-8.9c0-1.8-0.5-3.1-1.5-4.1c-1-1-2.4-1.5-4.1-1.5c-2.1,0-3.6,0.6-4.5,1.7
		c-1,1.1-1.4,2.6-1.4,4.4c0,1.8,0.5,3.8,1.5,5.9c1,2.1,2.9,4.5,5.8,7.3l14.9,14.3c3,2.8,5.7,5.8,8.2,9c2.5,3.1,4.5,6.8,6,11
		c1.5,4.2,2.3,9.3,2.3,15.3c0,12.1-2.2,21.6-6.7,28.5C1165.2,266.8,1157.4,270.2,1146.4,270.2z"/>
</g>
</svg>
