<?xml version="1.0" encoding="utf-8"?>
<!-- Generator: Adobe Illustrator 27.1.1, SVG Export Plug-In . SVG Version: 6.00 Build 0)  -->
<svg version="1.1" id="Capa_1" xmlns="http://www.w3.org/2000/svg" xmlns:xlink="http://www.w3.org/1999/xlink" x="0px" y="0px"
	 viewBox="0 0 2364.2 267.8" style="enable-background:new 0 0 2364.2 267.8;" xml:space="preserve">
<style type="text/css">
	.st0{fill:#FFFFFF;}
	.st1{fill:#FFFFFF;stroke:#286BA8;stroke-miterlimit:10;}
	.st2{fill:#FEBD16;}
</style>
<g>
	<path class="st0" d="M393.3,96.8c17.4,3.1,34.8,5.2,52.5,5.2c36.8-0.2,68.8-12.3,95.8-37.5c11.8-11,23.6-22.1,35.6-33
		c10-9,22.2-13,35.4-14.9c12.6-1.8,25-0.7,37.5,1.4c4.4,0.8,7-0.6,9.1-4.6c1.4-2.8,2.6-5.7,3.8-8.5c2.8-6.1,4.5-6.4,9-1.5
		c4.8,5.2,9.3,10.6,14.7,15.2c8.3,7.1,17.3,13.5,25.9,20.2c3.5,2.8,6.8,5.9,10.2,8.9c4.1,3.8,6.5,8.5,6.5,14c0.1,4.3,2.1,7.2,5,9.8
		c7,6.4,13.9,12.9,20.8,19.3c0.7,0.6,1.3,1.3,2,1.9c5.6,5.8,4.8,11.3-2.5,14.9c-4.4,2.2-7.8,5.1-10.6,9c-7.5,10.3-19,10.8-26-0.1
		c-5.9-9.1-13.1-12-23.3-10.7c-6.8,0.9-13.2-1.3-18.9-5.2c-4.3-2.9-8.7-5.7-13.4-7.8c-0.8-0.4-1.8-0.5-2.8-0.5
		c-2.8-0.1-5.1,2.4-4.7,5.2c0.1,0.8,0.3,1.7,0.6,2.4c3.9,8.8,5.8,17.6,4.9,27.5c-1.5,17.4,6.2,31.3,19.6,42.1
		c10.3,8.3,21.9,14.5,34,19.7c26.8,11.4,53.9,22.4,79.1,37.3c13.2,7.8,24.9,17.5,35,29.1c1.5,1.7,2.8,3.7,3.8,5.8
		c1.9,3.7,0.3,6.2-4,6.5c-1.2,0.1-2.3,0-3.5,0c-12.7,0-25.4,0-38.1,0c-4.5,0-6.4-1.1-7.8-5.4c-3.8-11.8-11.8-19-23.5-22.3
		c-19.9-5.6-39.9-11.1-59.8-16.7c-12.8-3.6-26-6.4-38.4-11.2c-18.3-7.2-30.6-13.7-43.5-28.9c-7.6-8.9-11.6-23.8-9.5-34.5
		c0.3-1.4,0.9-2.7,1-4c0-0.1,0-0.1,0-0.2c0-2.1-2.4-3.5-4.1-2.3c-0.1,0.1-0.2,0.1-0.3,0.2c-1.3,1.2-2.4,2.9-3.1,4.5
		c-2.8,6.8-3.7,13.9-1.2,20.9c2.2,6.4,4.9,12.6,7.6,18.9c2.2,5.2,1.6,8.1-3.9,9.4c-6.2,1.5-12.7,2.7-19,2.7
		c-11.3-0.1-22.6-0.9-33.8-1.9c-14.6-1.4-28.9-4.1-42.9-8.7c-20.5-6.6-37.1-18.9-50.8-35.1c-15.7-18.6-34.4-34.6-55.6-46.7
		c-4.2-2.4-8.3-5.2-12.5-7.8c-0.9-0.5-1.8-1-2.7-1.4c-1.2-0.6-0.7-2.5,0.7-2.3C386.7,95.8,390,96.2,393.3,96.8z M716.6,70.9
		c0.5-0.3,2.2-0.8,3-1.9c0.5-0.8,0.1-2.8-0.5-3.8c-2.2-3.1-5.2-5.2-9.2-5.2c-1.2,0-3.2,0.7-3.5,1.5c-0.5,1.3-0.3,3.3,0.5,4.5
		C708.8,69.2,711.8,70.7,716.6,70.9z"/>
	<path class="st0" d="M292.4,79.8c23.4,0.3,45.2,6.1,65.8,17.2c20,10.8,37.9,24.2,53.2,41c6,6.6,11.2,13.8,16.5,20.9
		c0.4,0.6,0.8,1.3,1,2c0.7,2.2-0.8,4.5-3.2,4.6c-0.9,0.1-1.7,0-2.5-0.2c-22.1-5.9-43.4-13.8-63.7-24.3c-3.2-1.6-6.4-3.1-9.7-4.6
		c-3.4-1.5-7.4-0.3-9.4,2.8c-13.5,20.7-31,37.6-50.4,52.5c-11.1,8.5-24.2,12-38.1,12.6c-16.3,0.8-32.1-2.3-47.8-6
		c-9.1-2.1-17.5-1-25.4,4.2c-13.2,8.8-24.6,19.5-34.3,32c-5.4,7-5.4,11.9-0.6,19.3c1.4,2.2,3,4.4,4.4,6.6c1.3,2.1,3,5.5-0.1,7.7
		c-0.8,0.2-3.1,0-3.9,0c-7.1,0.3-14.3-0.1-21.4,0c-4.3,0.1-5.8-3.8-5.4-7.9c0.9-8.1,1.3-16.4,3.2-24.2c1.7-7.2,4.4-14.3,7.8-20.9
		c8.7-17.2,17.9-34.1,27.2-51c4.5-8.1,11.7-13.7,19.6-18.2c11.4-6.6,23.1-12.4,34.6-18.9c8.3-4.7,16.6-9.6,24.3-15.2
		c4.6-3.3,8.6-7.8,12-12.4c11.1-14.8,26.1-20.1,43.8-19.7C290.8,79.8,291.6,79.8,292.4,79.8z"/>
	<path class="st0" d="M518.5,64.7c-1.5,1.2-3.4,2-4.1,2.3c-10.9,4-21.6,8.5-32.8,11.6c-14.8,4.1-30.1,5.7-45.5,5
		c-13.6-0.6-26.1-0.3-39.7-1.5c-15.9-1.4-32.9-4-48.8-6c-9.4-1.1-15.7-2.8-25-3.8c-8.7-0.9-19-3.6-27.8-4.1
		c-12-0.7-26.5-0.1-38.3,2.8c-28.1,6.9-53.8,19.4-79.1,33.5c-4.5,2.5-8.8,5.5-13.1,8.4c-26.8,18.5-53.1,33.7-84.7,41.8
		c-8.1,2.1-19,2.4-27.4,0.6c-16.4-3.6-28.1-13.9-31.6-29.6c-2.8-12.8-4-22.4-0.1-33.6c1.4-4,3.6-7.6,8.8-7.6
		c5.7,0,10.4,4.7,10.2,10.3c-0.2,6-0.8,12-0.7,17.9c0.2,7,1.9,13.7,6.8,19.1c6.9,7.6,15.9,8.7,25.2,7c25.4-4.7,47.9-16.3,69-30.7
		C159.6,94.7,179.2,81,201,71c17.7-8.1,35.5-16,54.8-19.5c16-3,32-4.4,48.1-1.8c19.4,3.1,38.7,6.9,58.1,10c15,2.4,30,4.9,45.1,5.9
		c19.7,1.2,39.5,1.6,59.2,1c15.1-0.4,30.2-2.8,45.4-4.2c2.2-0.2,4.1-0.4,6.3-0.4c1.2-0.1,1.3,0.5,1.4,0.7
		C519.7,63.1,520,63.5,518.5,64.7z"/>
	<path class="st0" d="M342,202.1c-0.5-1.5-0.4-6.8,0-8.3c0.8-2.8,0.9-3.4,2-5.9c2-4.3,4.4-8.4,7-12.3c3.8-6.1,6.5-12.3,5.8-19.8
		c-0.5-5.5,1.3-6.5,6.5-4.2c12.1,5.3,24.3,10.6,36.4,15.9c0.1,0,0.1,0.1,0.2,0.1c14,6,16.4,24.9,4,33.7c-0.1,0.1-0.3,0.2-0.4,0.3
		c-0.2,0.1-0.4,0.3-0.6,0.4c-15.1,10.6-14.2,26.6,1.8,35.6c0.1,0,0.2,0.1,0.2,0.1c6,3.4,12.3,6.4,18.4,9.6c4,2.1,6.8,5.4,8.7,9.6
		c1.7,3.8,0.8,10.7-3.2,11.3c-4.6,0.7-9.4-0.3-14.1,0c-6.4,0.5-12.9-0.5-19.3,0c-5.5,0.4-7.3-3.1-8.2-8.6c-1-5.7-3.8-10.3-7.8-14.3
		c-9-8.9-18.1-17.8-26.9-27c-3.2-3.4-6-7.3-8.5-11.3C342.9,205.1,342.7,204.5,342,202.1z"/>
	<path class="st0" d="M571.7,268.1c0.9,0,1.7,0,2.5,0.1c5.8,0.4,9.7-5.9,6.8-10.9c-2.4-4.1-5.6-7.7-8.3-11.6c-2.8-4-2-9.5,1.7-12.7
		c5.1-4.4,10.4-8.5,15.8-12.4c4.2-2.9,7.8-6.1,10-10.7c0.3-0.7,0.4-1.8,0.4-2.8c0-1.1-1-1.8-2-1.6c-0.7,0.2-1.5,0.4-2.2,0.5
		c-3,0.7-5.4,0.9-8.3,0.9c-11.1,0.8-22.7-0.3-33.9-0.6c-4.1-0.1-5.8,1.7-5.7,5.8c0.1,2.8,0.4,5.5,0.3,8.3
		c-0.3,6.6-3.8,11.8-7.6,16.7c-3.6,4.8-4.3,10.1-3.6,15.7c0.9,6.8,2.7,15.4,9.7,15.4c1.3,0,2.5-0.1,3.8-0.1H571.7L571.7,268.1z"/>
	<path class="st1" d="M186.5,93.7"/>
</g>
<g>
	<g>
		<path class="st2" d="M913.1,238.7c-17.2,0-29.8-4.9-38-14.5c-8.1-9.6-12.1-23.9-12.1-42.7v-151h40.1v149.3c0,3.4,0.2,6.7,0.5,9.9
			c0.4,3.3,1.3,5.8,2.7,7.8c1.4,2,3.6,3.1,6.9,3.1s5.4-0.9,6.9-2.9c1.4-2,2.4-4.5,2.7-7.8c0.4-3.3,0.5-6.5,0.5-9.9V30.7h40.1v151
			c0,18.8-4,32.9-12.1,42.7C943,234,930.3,238.7,913.1,238.7z"/>
		<path class="st2" d="M977.7,236.8V30.6h42.5l19,98.7V30.6h39.8v206.3h-40.3L1018,133.8v103.1H977.7z"/>
		<path class="st2" d="M1093.9,236.8V30.6h39.8v206.3H1093.9z"/>
		<path class="st2" d="M1167.7,236.8l-25.5-206.3h39.2l15.2,140.3L1210,30.6h39.2l-25.5,206.3H1167.7z"/>
		<path class="st2" d="M1259.9,236.8V30.6h82.4v39.8h-40.5v40.1h38.9v38.9h-38.9v47.2h43.2v40.1L1259.9,236.8L1259.9,236.8z"/>
		<path class="st2" d="M1357.2,236.8V30.6h63.3c10.5,0,18.4,2.4,23.9,7.2c5.4,4.9,9,11.6,10.8,20.1c1.8,8.7,2.7,18.8,2.7,30.4
			c0,11.2-1.4,20.2-4.3,26.9c-2.9,6.7-8.1,11.4-16.1,13.9c6.5,1.3,11,4.5,13.6,9.8c2.7,5.1,4,11.8,4,19.9v78.1h-40.7v-80.6
			c0-6-1.3-9.8-3.6-11.2c-2.5-1.4-6.3-2.2-11.9-2.2v94L1357.2,236.8L1357.2,236.8z M1399.1,107h9.9c5.6,0,8.5-6.1,8.5-18.6
			c0-8.1-0.7-13.4-1.8-15.9c-1.1-2.5-3.6-3.8-7.1-3.8h-9.6L1399.1,107L1399.1,107z"/>
		<path class="st2" d="M1519,238.7c-18.8,0-32.4-4.7-40.7-14.1c-8.3-9.4-12.5-24.2-12.5-44.8v-20.1h40.7v25.9
			c0,4.7,0.7,8.5,2.2,11.2s4,4,7.6,4c3.8,0,6.3-1.1,7.8-3.3c1.4-2.2,2.2-5.8,2.2-10.8c0-6.3-0.7-11.6-1.8-15.9
			c-1.3-4.3-3.4-8.3-6.5-12.1c-3.1-3.8-7.4-8.3-12.8-13.6l-18.4-17.5c-13.7-13-20.8-28-20.8-44.8c0-17.5,4.2-30.9,12.3-40.1
			c8.1-9.2,19.9-13.7,35.4-13.7c19,0,32.4,5.1,40.3,15.2c8,10.1,11.9,25.3,11.9,45.9h-41.9V75.8c0-2.9-0.7-5.1-2.4-6.5
			c-1.6-1.6-3.8-2.4-6.5-2.4c-3.3,0-5.6,0.9-7.2,2.7c-1.4,1.8-2.4,4.2-2.4,7.1s0.7,6,2.4,9.4c1.6,3.4,4.7,7.2,9.2,11.6l23.9,22.8
			c4.7,4.5,9,9.2,13.2,14.3c4,5.1,7.2,10.8,9.6,17.5s3.6,14.8,3.6,24.4c0,19.3-3.6,34.5-10.7,45.6
			C1549.2,233.2,1536.7,238.7,1519,238.7z"/>
		<path class="st2" d="M1573.8,236.8l19.9-206.3h70l19.5,206.1h-39.1l-2.9-33.3h-24.8l-2.5,33.3L1573.8,236.8L1573.8,236.8z
			 M1619.3,170.7h18.8l-9-104.9h-1.8L1619.3,170.7z"/>
		<path class="st2" d="M1694.4,236.8V30.6h41.2v171h42.5v35.1L1694.4,236.8L1694.4,236.8z"/>
		<path class="st2" d="M1860.7,236.8V70.3h-24.4V30.7h90.2v39.6h-24.4v166.5H1860.7z"/>
		<path class="st2" d="M1985.8,238.7c-16.5,0-29.1-5.1-37.8-15s-13-24.4-13-43.2v-98c0-17.7,4.3-31.1,13-40.1s21.3-13.7,38-13.7
			s29.3,4.5,38,13.7s13,22.6,13,40.1v98c0,18.8-4.3,33.3-13,43.2C2014.8,233.8,2002.3,238.7,1985.8,238.7z M1986.2,200.7
			c6.3,0,9.4-6.1,9.4-18.1V81.9c0-10.1-3.1-15.2-9-15.2c-6.9,0-10.3,5.2-10.3,15.5v100.5c0,6.3,0.7,11,2.4,13.7
			C1979.9,199.4,1982.6,200.7,1986.2,200.7z"/>
		<path class="st2" d="M2101,238.7c-16.5,0-29.1-5.1-37.8-15s-13-24.4-13-43.2v-98c0-17.7,4.3-31.1,13-40.1c8.7-9,21.3-13.7,38-13.7
			c16.6,0,29.3,4.5,38,13.7c8.7,9.2,13,22.6,13,40.1v98c0,18.8-4.3,33.3-13,43.2C2130.1,233.8,2117.4,238.7,2101,238.7z
			 M2101.4,200.7c6.3,0,9.4-6.1,9.4-18.1V81.9c0-10.1-3.1-15.2-9-15.2c-6.9,0-10.3,5.2-10.3,15.5v100.5c0,6.3,0.7,11,2.4,13.7
			C2095.2,199.4,2097.7,200.7,2101.4,200.7z"/>
		<path class="st2" d="M2167,236.8V30.6h41.2v171h42.5v35.1L2167,236.8L2167,236.8z"/>
		<path class="st2" d="M2310,238.7c-18.8,0-32.4-4.7-40.7-14.1c-8.3-9.4-12.5-24.2-12.5-44.8v-20.1h40.7v25.9
			c0,4.7,0.7,8.5,2.2,11.2c1.4,2.7,4,4,7.6,4c3.8,0,6.3-1.1,7.8-3.3c1.4-2.2,2.2-5.8,2.2-10.8c0-6.3-0.5-11.6-1.8-15.9
			s-3.4-8.3-6.5-12.1c-3.1-3.8-7.4-8.3-12.8-13.6l-18.4-17.5c-13.9-13-20.8-28-20.8-44.8c0-17.5,4.2-30.9,12.3-40.1
			s19.9-13.7,35.4-13.7c19,0,32.4,5.1,40.3,15.2s11.9,25.3,11.9,45.9h-41.9V75.8c0-2.9-0.7-5.1-2.4-6.5c-1.6-1.6-3.8-2.4-6.5-2.4
			c-3.3,0-5.6,0.9-7.2,2.7c-1.4,1.8-2.4,4.2-2.4,7.1s0.7,6,2.4,9.4c1.6,3.4,4.7,7.2,9.2,11.6l23.9,22.8c4.7,4.5,9,9.2,13.2,14.3
			c4.2,5.1,7.2,10.8,9.6,17.5s3.6,14.8,3.6,24.4c0,19.3-3.6,34.5-10.7,45.6C2340.2,233.2,2327.7,238.7,2310,238.7z"/>
	</g>
	<path class="st2" d="M862.5,20.1c-0.2-6.9-0.4-13.4,0-20.2c500.6,0,1000.9,0,1501.4,0c0,6.9,0,13.4,0,19.9
		c-0.4,0.2-0.4,0.2-0.5,0.4c-0.2,0-0.2,0.2-0.4,0.2c-1.1,0-2.2,0.2-3.3,0.2c-498.3,0-996.4,0-1494.7,0
		C864.5,20.4,864,20.2,862.5,20.1z"/>
	<path class="st2" d="M862.2,267.4c-0.2-6.9-0.4-13.4,0-20.2c500.6,0,1000.9,0,1501.4,0c0,6.9,0,13.4,0,19.9
		c-0.4,0.2-0.4,0.2-0.5,0.4c-0.2,0-0.2,0.2-0.4,0.2c-1.1,0-2.2,0.2-3.3,0.2c-498.3,0-996.4,0-1494.7,0
		C864.1,267.8,863.6,267.6,862.2,267.4z"/>
</g>
</svg>
